<svg width="669" height="639" viewBox="0 0 669 639" fill="none" xmlns="http://www.w3.org/2000/svg">
<path d="M330.001 597.162L41.4947 380.967C32.3127 374.439 24.4352 363.693 33.3831 356.677L322.926 145.23C327.275 141.817 333.864 139.592 338.28 142.835L641.136 365.579C650.318 372.341 651.974 391.226 642.809 397.987L367.95 596.759C362.195 600.991 355.671 603.253 349.018 603.323C342.364 603.394 335.811 601.271 330.001 597.162Z" fill="#F4C54C"/>
<path style="mix-blend-mode:multiply" opacity="0.68" d="M306.987 582.177C306.987 582.177 482.115 453.689 485.142 451.04L194.679 295.613L73.59 400.849C77.5371 404.516 303.007 578.552 306.987 582.177Z" fill="url(#paint0_linear_2_3)"/>
<path d="M351.376 237.706C255.892 237.706 178.59 296.185 178.59 368.25C178.59 389.657 185.397 409.857 197.455 427.597C197.455 427.597 203.108 444.554 197.455 453.71C192.137 462.401 185.514 469.586 177.001 472.447C165.293 476.369 152.9 475.097 141.159 478.806C124.3 484.444 111.506 503.902 122.979 525.097C127.212 532.538 132.949 538.396 139.587 542.054C158.536 552.355 175.646 538.832 189.277 522.681C198.726 511.49 207.674 494.173 220.954 490.294C238.432 485.207 292.504 491.163 292.504 491.163C311.86 496.393 331.601 499 351.392 498.942C446.825 498.942 524.178 440.442 524.178 368.292C524.178 296.142 446.808 237.706 351.376 237.706Z" fill="#68E1FD"/>
<path d="M118.597 490.654L118.664 510.557L134.168 500.616L118.597 490.654Z" fill="#68E1FD"/>
<path opacity="0.33" d="M351.376 237.706C255.892 237.706 178.59 296.185 178.59 368.25C178.59 389.657 185.397 409.857 197.455 427.597C197.455 427.597 203.108 444.554 197.455 453.71C192.137 462.401 185.514 469.586 177.001 472.447C165.293 476.369 152.9 475.097 141.159 478.806C124.3 484.444 111.506 503.902 122.979 525.097C127.212 532.538 132.949 538.396 139.587 542.054C158.536 552.355 175.646 538.832 189.277 522.681C198.726 511.49 207.674 494.173 220.954 490.294C238.432 485.207 292.504 491.163 292.504 491.163C311.86 496.393 331.601 499 351.392 498.942C446.825 498.942 524.178 440.442 524.178 368.292C524.178 296.142 446.808 237.706 351.376 237.706Z" fill="black"/>
<path opacity="0.33" d="M118.597 490.654L118.664 510.557L134.168 500.616L118.597 490.654Z" fill="black"/>
<path d="M351.376 220.071C255.943 220.071 178.59 278.571 178.59 350.721C178.59 372.129 185.397 392.328 197.455 410.069C197.455 410.069 203.108 427.025 197.455 436.182C192.137 444.872 185.514 452.057 177.001 454.919C165.293 458.84 152.9 457.568 141.159 461.277C124.3 466.703 111.506 486.203 122.996 507.229C127.206 514.73 132.939 520.647 139.587 524.355C158.536 534.656 175.646 521.134 189.277 504.983C198.726 493.791 207.674 476.475 220.954 472.596C238.432 467.509 292.504 473.465 292.504 473.465C311.86 478.695 331.601 481.302 351.392 481.244C446.825 481.244 524.178 422.744 524.178 350.594C524.178 278.444 446.808 220.071 351.376 220.071Z" fill="#68E1FD"/>
<path d="M354.938 463.079C440.417 463.079 509.711 410.08 509.711 344.702C509.711 279.324 440.417 226.324 354.938 226.324C269.459 226.324 200.165 279.324 200.165 344.702C200.165 410.08 269.459 463.079 354.938 463.079Z" fill="#F6D6A7"/>
<path d="M354.938 445.508C314.798 445.508 276.966 433.447 248.333 411.595C218.077 388.449 201.402 356.974 201.402 322.976C201.402 288.978 218.127 257.503 248.333 234.357C276.966 212.462 314.831 200.444 354.938 200.444C395.045 200.444 432.91 212.505 461.543 234.357C491.815 257.439 508.44 288.915 508.44 322.912C508.44 356.91 491.715 388.386 461.51 411.531C432.91 433.447 395.045 445.508 354.938 445.508ZM354.938 226.345C282.836 226.345 221.941 270.559 221.941 322.912C221.941 375.266 282.853 419.48 354.938 419.48C427.023 419.48 487.935 375.266 487.935 322.912C487.935 270.559 427.039 226.345 354.938 226.345Z" fill="#FDB86A"/>
<path d="M423.627 295.613C431.581 295.613 438.028 290.982 438.028 285.269C438.028 279.557 431.581 274.926 423.627 274.926C415.674 274.926 409.227 279.557 409.227 285.269C409.227 290.982 415.674 295.613 423.627 295.613Z" fill="#C35959"/>
<path d="M321.388 289.402C329.341 289.402 335.788 284.771 335.788 279.059C335.788 273.346 329.341 268.715 321.388 268.715C313.435 268.715 306.987 273.346 306.987 279.059C306.987 284.771 313.435 289.402 321.388 289.402Z" fill="#C35959"/>
<path d="M379.708 274.904C387.661 274.904 394.108 270.274 394.108 264.561C394.108 258.849 387.661 254.218 379.708 254.218C371.755 254.218 365.307 258.849 365.307 264.561C365.307 270.274 371.755 274.904 379.708 274.904Z" fill="#C35959"/>
<path d="M353.566 393.239C361.52 393.239 367.967 388.609 367.967 382.896C367.967 377.183 361.52 372.553 353.566 372.553C345.613 372.553 339.166 377.183 339.166 382.896C339.166 388.609 345.613 393.239 353.566 393.239Z" fill="#C35959"/>
<path d="M265.727 323.591C273.68 323.591 280.127 318.96 280.127 313.247C280.127 307.535 273.68 302.904 265.727 302.904C257.774 302.904 251.327 307.535 251.327 313.247C251.327 318.96 257.774 323.591 265.727 323.591Z" fill="#C35959"/>
<path d="M299.277 379.59C307.23 379.59 313.677 374.959 313.677 369.246C313.677 363.534 307.23 358.903 299.277 358.903C291.324 358.903 284.877 363.534 284.877 369.246C284.877 374.959 291.324 379.59 299.277 379.59Z" fill="#C35959"/>
<path d="M441.423 337.41C449.376 337.41 455.823 332.779 455.823 327.067C455.823 321.354 449.376 316.723 441.423 316.723C433.47 316.723 427.023 321.354 427.023 327.067C427.023 332.779 433.47 337.41 441.423 337.41Z" fill="#C35959"/>
<path d="M354.938 330.903C362.891 330.903 369.338 326.272 369.338 320.56C369.338 314.847 362.891 310.216 354.938 310.216C346.985 310.216 340.538 314.847 340.538 320.56C340.538 326.272 346.985 330.903 354.938 330.903Z" fill="#C35959"/>
<path d="M401.517 382.642C409.47 382.642 415.917 378.011 415.917 372.298C415.917 366.586 409.47 361.955 401.517 361.955C393.564 361.955 387.117 366.586 387.117 372.298C387.117 378.011 393.564 382.642 401.517 382.642Z" fill="#C35959"/>
<path d="M373.82 295.613L381.33 289.402C381.33 289.402 408.876 293.281 404.227 322.913L394.108 327.152C394.108 327.152 403.859 303.497 373.82 295.613Z" fill="#C35959"/>
<path d="M445.822 340.823L451.675 349.428C451.675 349.428 452.328 384.528 428.528 382.663L423.945 370.497C423.945 370.497 443.681 379.611 445.822 340.823Z" fill="#C35959"/>
<path d="M326.422 345.125L317.457 344.786C317.457 344.786 296.584 321.683 313.744 300.721L323.913 304.642C323.913 304.642 305.298 316.935 326.422 345.125Z" fill="#C35959"/>
<path d="M337.845 374.079L338.514 385.397C338.514 385.397 322.558 414.096 304.311 394.66L306.335 381.434C306.335 381.434 317.892 403.646 337.845 374.079Z" fill="#C35959"/>
<path d="M290.865 297.796L281.967 296.333C281.967 296.333 262.984 270.75 281.682 252.013L291.5 257.185C291.5 257.185 272.015 267.126 290.865 297.796Z" fill="#C35959"/>
<path d="M267.6 327.342L273.454 335.948C273.454 335.948 274.106 371.048 250.306 369.182L245.724 357.016C245.724 357.016 265.459 366.13 267.6 327.342Z" fill="#C35959"/>
<path d="M412.756 240.398L418.61 249.003C418.61 249.003 419.262 284.103 395.463 282.238L390.88 270.072C390.88 270.072 410.615 279.228 412.756 240.398Z" fill="#C35959"/>
<path d="M353.851 340.166C351.004 335.376 346.819 332.148 342.155 331.143C337.49 330.138 332.699 331.433 328.763 334.761C322.926 339.339 319.631 347.838 321.371 355.554C317.025 356.299 312.951 358.659 309.663 362.336C307.709 364.976 306.307 368.194 305.585 371.696C304.864 375.198 304.846 378.874 305.532 382.387C307.957 397.479 324.415 401.103 333.864 395.105C339.216 391.65 334.5 381.455 329.148 384.888C326.298 386.49 323.073 386.649 320.133 385.333C316.504 384.041 314.397 382.218 314.48 376.982C314.614 368.377 321.722 367.36 327.091 366.385C327.824 366.317 328.524 365.968 329.097 365.385C329.67 364.803 330.091 364.013 330.302 363.121C330.882 362.654 331.372 362.03 331.738 361.293C332.104 360.557 332.337 359.726 332.418 358.862C332.5 357.998 332.429 357.122 332.21 356.296C331.992 355.471 331.631 354.718 331.155 354.091C327.693 349.492 333.547 344.49 336.607 343.239C341.223 341.374 344.435 344.256 347.244 348.623C351.041 354.43 357.614 346.016 353.851 340.166Z" fill="#F88F58"/>
<path d="M372.365 255.913C371.515 251.237 369.514 247.025 366.653 243.882C363.791 240.739 360.216 238.829 356.443 238.427C348.582 237.473 341.575 242.136 336.273 249.025C332.192 244.998 327.626 242.03 322.157 242.814C315.383 244.144 309.176 248.388 304.579 254.832C300.414 260.322 307.004 268.694 311.185 263.205C313.951 259.239 317.564 256.375 321.588 254.959C326.171 253.603 329.282 256.761 332.56 260.47C333.054 261.056 333.646 261.493 334.292 261.75C334.937 262.007 335.62 262.077 336.29 261.954C337.072 262.376 337.945 262.446 338.763 262.153C339.581 261.86 340.296 261.221 340.789 260.343C346.04 252.225 360.424 242.751 363.367 259.05C364.705 266.384 373.703 263.247 372.365 255.913Z" fill="#F88F58"/>
<path d="M462.028 290.61C454.636 277.639 440.871 278.783 431.137 286.371C426.12 290.377 430.736 300.615 435.854 296.588C440.971 292.56 447.293 290.081 452.461 294.934C456.158 298.41 457.646 307.016 452.261 309.559C451.458 309.956 450.749 310.608 450.202 311.452C449.656 312.296 449.29 313.305 449.141 314.381C448.991 315.456 449.063 316.562 449.349 317.593C449.634 318.623 450.125 319.543 450.772 320.263C451.942 323.798 452.659 327.548 452.896 331.37C453.08 337.198 450.438 339.53 446.808 342.264C440.62 346.97 433.295 345.761 429.247 337.728C426.019 331.37 417.941 337.262 421.186 343.705C424.074 349.678 428.649 354.033 433.98 355.883C439.312 357.734 444.999 356.941 449.886 353.667C454.636 350.53 459.67 346.27 461.426 339.551C463.299 332.323 461.794 324.184 459.754 317.147C462.68 313.883 464.536 309.35 464.957 304.439C465.378 299.527 464.333 294.594 462.028 290.61Z" fill="#F88F58"/>
<path d="M307.924 332.217C303.509 320.645 297.203 311.022 286.181 313.141C279.641 314.293 273.701 318.589 269.59 325.138C260.877 315.155 244.787 317.402 237.127 329.526C233.414 335.418 239.97 343.833 243.733 337.898C248.166 330.882 262.131 325.901 265.275 337.241C265.624 338.317 266.199 339.251 266.937 339.941C267.676 340.632 268.55 341.052 269.464 341.157C270.378 341.262 271.297 341.047 272.122 340.536C272.946 340.025 273.644 339.237 274.139 338.258C274.393 337.82 274.601 337.343 274.758 336.838C275.825 333.722 277.496 330.998 279.616 328.919C281.736 326.84 284.236 325.474 286.884 324.947C294.209 323.167 297.153 331.052 299.879 338.173C302.605 345.295 310.533 339 307.924 332.217Z" fill="#F88F58"/>
<path d="M360.089 275.116C354.085 275.116 354.068 286.944 360.089 286.944C366.11 286.944 366.11 275.116 360.089 275.116Z" fill="#4D2122"/>
<path d="M327.91 299.831C321.906 299.831 321.889 311.658 327.91 311.658C333.931 311.658 333.915 299.831 327.91 299.831Z" fill="#4D2122"/>
<path d="M290.848 255.341C284.843 255.341 284.827 267.168 290.848 267.168C296.869 267.168 296.852 255.341 290.848 255.341Z" fill="#4D2122"/>
<path d="M376.664 323.315C370.659 323.315 370.643 335.142 376.664 335.142C382.685 335.142 382.685 323.315 376.664 323.315Z" fill="#4D2122"/>
<path d="M376.664 393.685C370.659 393.685 370.643 405.512 376.664 405.512C382.685 405.512 382.685 393.685 376.664 393.685Z" fill="#4D2122"/>
<path d="M419.58 333.214C413.576 333.214 413.559 345.041 419.58 345.041C425.601 345.041 425.601 333.214 419.58 333.214Z" fill="#4D2122"/>
<path d="M263.536 280.055C257.532 280.055 257.515 291.882 263.536 291.882C269.557 291.882 269.557 280.055 263.536 280.055Z" fill="#4D2122"/>
<path d="M387.786 355.872C387.081 352.796 385.478 350.177 383.303 348.547C381.128 346.917 378.544 346.398 376.078 347.097C375.545 347.229 375.042 347.512 374.607 347.923C374.202 348.011 373.819 348.214 373.486 348.517C369.321 352.459 364.822 358.373 367.398 365.473C369.706 371.832 376.58 373.951 381.464 371.535C383.812 370.299 385.738 368.045 386.896 365.175C388.054 362.306 388.369 359.009 387.786 355.872ZM378.654 362.824C377.65 363.375 374.623 363.375 374.088 361.637C373.553 359.899 376.296 357.525 377.182 356.698L377.55 356.296H378.002C381.33 355.342 381.146 361.488 378.654 362.845V362.824Z" fill="#4DAA3D"/>
<path d="M442.811 262.569C442.021 259.8 440.544 257.431 438.603 255.815C436.661 254.199 434.359 253.423 432.04 253.603C431.403 253.664 430.788 253.926 430.251 254.366C429.522 254.159 428.761 254.253 428.077 254.635C427.394 255.016 426.825 255.665 426.454 256.486C423.828 261.89 423.293 268.864 426.571 274.035C427.961 276.273 429.955 277.779 432.169 278.264C434.383 278.75 436.661 278.179 438.563 276.664C440.426 275.271 441.861 273.118 442.632 270.558C443.404 267.997 443.467 265.181 442.811 262.569ZM434.8 268.503C434.604 268.722 434.372 268.88 434.119 268.964C433.867 269.049 433.603 269.057 433.348 268.989C433.093 268.921 432.854 268.779 432.65 268.573C432.446 268.367 432.283 268.104 432.174 267.804C431.862 267.075 431.699 266.259 431.699 265.43C431.699 264.601 431.862 263.785 432.174 263.056C434.432 262.95 437.576 266.151 434.85 268.503H434.8Z" fill="#4DAA3D"/>
<path d="M443.213 333.489C442.594 326.918 440.051 321.429 435.051 319.034C431.906 317.529 430.033 321.535 430.686 324.82C422.574 330.988 426.872 353.137 437.61 348.835C442.711 346.8 443.815 339.339 443.213 333.489ZM435.854 337.919C435.101 343.578 432.375 333.68 434.649 332.832C434.972 332.712 435.281 332.541 435.569 332.323C435.982 334.147 436.09 336.06 435.887 337.94L435.854 337.919Z" fill="#4DAA3D"/>
<path d="M299.578 287.389C298.929 287.241 298.261 287.307 297.638 287.579C297.079 287.31 296.481 287.187 295.883 287.22C295.285 287.253 294.698 287.44 294.159 287.77C292.133 288.991 290.463 290.994 289.39 293.492C288.318 295.99 287.897 298.855 288.188 301.675C288.479 303.933 289.255 306.046 290.43 307.783C291.606 309.519 293.136 310.812 294.853 311.52C296.57 312.227 298.408 312.322 300.164 311.794C301.921 311.266 303.529 310.135 304.812 308.526C306.096 306.916 307.004 304.89 307.439 302.669C307.874 300.449 307.818 298.119 307.278 295.936C306.737 293.753 305.733 291.801 304.374 290.293C303.016 288.785 301.357 287.78 299.578 287.389ZM297.621 302.713C294.427 302.183 295.497 298.092 297.304 296.354H297.588C298.976 296.651 300.414 297.69 300.297 299.746C300.283 300.167 300.201 300.581 300.057 300.962C299.914 301.342 299.711 301.682 299.461 301.961C299.211 302.24 298.919 302.453 298.603 302.586C298.287 302.718 297.953 302.769 297.621 302.734V302.713Z" fill="#4DAA3D"/>
<path d="M283.572 365.749C281.823 362.939 279.478 360.82 276.812 359.641C274.145 358.462 271.269 358.272 268.52 359.093C264.807 359.984 265.259 365.791 267.901 367.699C265.994 372.659 265.459 378.445 269.089 382.684C272.718 386.923 280.077 389.445 283.991 384.168C287.586 379.229 286.483 370.751 283.572 365.749ZM278.555 377.194C277.869 378.551 274.942 377.025 274.14 375.838C272.902 374.015 274.507 371.175 275.661 369.288C276.029 369.534 276.376 369.825 276.698 370.157C277.886 371.408 279.625 375.181 278.605 377.194H278.555Z" fill="#4DAA3D"/>
<path d="M350.606 283.785C349.502 277.872 342.244 280.373 343.414 286.308C343.999 289.249 343.811 292.352 342.879 295.146C342.41 296.237 342.288 297.513 342.537 298.715C342.785 299.916 343.386 300.952 344.217 301.611C345.073 302.232 346.087 302.402 347.041 302.085C347.995 301.768 348.813 300.989 349.318 299.915C351.168 294.876 351.622 289.193 350.606 283.785Z" fill="#E8AC18"/>
<path d="M383.454 310.216L377.768 303.243C377.421 302.803 377.009 302.454 376.555 302.216C376.102 301.978 375.616 301.856 375.125 301.856C374.634 301.856 374.148 301.978 373.695 302.216C373.241 302.454 372.83 302.803 372.483 303.243C372.135 303.683 371.86 304.205 371.672 304.78C371.485 305.354 371.388 305.97 371.388 306.592C371.388 307.214 371.485 307.83 371.672 308.404C371.86 308.979 372.135 309.501 372.483 309.941L378.169 316.914C378.87 317.802 379.82 318.301 380.812 318.301C381.803 318.301 382.753 317.802 383.454 316.914C384.155 316.026 384.549 314.821 384.549 313.565C384.549 312.309 384.155 311.105 383.454 310.216Z" fill="#E8AC18"/>
<path d="M353.449 348.517C352.591 347.912 351.581 347.751 350.63 348.067C349.68 348.383 348.862 349.151 348.348 350.212L343.331 359.157C342.841 360.242 342.707 361.527 342.957 362.736C343.207 363.945 343.822 364.981 344.669 365.622C345.528 366.226 346.538 366.387 347.488 366.071C348.438 365.756 349.256 364.987 349.77 363.926L354.787 354.981C355.277 353.897 355.412 352.611 355.161 351.402C354.911 350.193 354.296 349.157 353.449 348.517Z" fill="#E8AC18"/>
<path d="M409.043 342.964L403.658 334.485C402.954 333.605 402.004 333.112 401.015 333.112C400.026 333.112 399.077 333.605 398.373 334.485C397.694 335.388 397.315 336.587 397.315 337.834C397.315 339.081 397.694 340.28 398.373 341.183L403.758 349.661C404.462 350.542 405.412 351.035 406.401 351.035C407.39 351.035 408.339 350.542 409.043 349.661C409.722 348.759 410.101 347.559 410.101 346.312C410.101 345.065 409.722 343.866 409.043 342.964Z" fill="#E8AC18"/>
<path d="M413.191 390.972C412.922 389.765 412.288 388.741 411.427 388.122C410.566 387.503 409.547 387.339 408.592 387.665C404.815 389.53 400.89 390.866 396.884 391.65C395.932 391.991 395.124 392.795 394.636 393.886C394.147 394.977 394.018 396.267 394.275 397.479C394.559 398.673 395.196 399.683 396.052 400.299C396.909 400.915 397.92 401.089 398.875 400.785C402.88 400.001 406.806 398.665 410.582 396.8C411.522 396.436 412.317 395.628 412.802 394.544C413.287 393.46 413.427 392.182 413.191 390.972Z" fill="#E8AC18"/>
<path d="M359.989 399.386L354.252 398.22C353.297 397.917 352.286 398.091 351.43 398.706C350.574 399.322 349.937 400.332 349.653 401.527C349.4 402.738 349.532 404.026 350.019 405.116C350.507 406.205 351.312 407.009 352.262 407.356L357.915 408.521C358.87 408.825 359.881 408.651 360.737 408.036C361.594 407.42 362.23 406.41 362.514 405.215C362.771 404.018 362.651 402.742 362.18 401.655C361.709 400.568 360.923 399.754 359.989 399.386Z" fill="#E8AC18"/>
<path d="M476.111 311.022C475.308 305.023 468.116 307.567 468.919 313.544C469.488 317.942 468.937 322.456 467.347 326.431C465.206 331.857 471.645 336.668 473.786 331.2C476.28 324.976 477.096 317.889 476.111 311.022Z" fill="#E8AC18"/>
<path d="M399.376 239.19L393.573 238.045C392.618 237.742 391.607 237.916 390.751 238.531C389.894 239.147 389.258 240.157 388.973 241.352C388.721 242.563 388.852 243.851 389.34 244.941C389.827 246.03 390.633 246.834 391.582 247.181L397.386 248.325C398.341 248.629 399.352 248.455 400.208 247.839C401.065 247.224 401.701 246.213 401.985 245.019C402.238 243.808 402.107 242.519 401.619 241.43C401.131 240.34 400.326 239.536 399.376 239.19Z" fill="#E8AC18"/>
<path d="M337.694 233.976C335.907 233.177 333.982 233.009 332.125 233.488C331.17 233.825 330.36 234.627 329.871 235.72C329.382 236.812 329.254 238.106 329.516 239.317C329.804 240.509 330.441 241.516 331.296 242.131C332.152 242.746 333.16 242.922 334.115 242.624H333.915H334.634H334.935C335.201 242.719 335.464 242.832 335.721 242.963C336.677 243.295 337.697 243.133 338.559 242.513C339.422 241.894 340.055 240.866 340.32 239.656C340.522 238.465 340.364 237.221 339.878 236.169C339.392 235.118 338.613 234.335 337.694 233.976Z" fill="#E8AC18"/>
<path d="M239.168 294.065C236.127 300.236 234.361 307.277 234.033 314.54C233.715 320.623 241.191 320.602 241.492 314.54C241.799 308.956 243.214 303.561 245.607 298.855C248.182 293.663 241.726 288.894 239.168 294.065Z" fill="#E8AC18"/>
<path d="M252.18 339.827C247.379 339.827 247.363 349.28 252.18 349.28C256.996 349.28 256.996 339.827 252.18 339.827Z" fill="#E8AC18"/>
<path d="M298.341 340.547C294.697 339.544 291.11 338.234 287.603 336.626C286.647 336.3 285.629 336.464 284.768 337.083C283.907 337.702 283.273 338.726 283.004 339.933C282.76 341.143 282.895 342.426 283.382 343.513C283.868 344.6 284.668 345.406 285.613 345.761C289.119 347.369 292.706 348.679 296.35 349.683C301.05 350.954 303.04 341.84 298.341 340.547Z" fill="#E8AC18"/>
<path d="M298.692 392.519C297.295 392.413 295.942 391.859 294.761 390.908C293.909 390.303 292.902 390.146 291.959 390.471C291.016 390.796 290.212 391.577 289.718 392.647C289.225 393.716 289.083 394.988 289.322 396.189C289.562 397.39 290.164 398.424 290.998 399.068C293.341 400.808 295.98 401.804 298.692 401.972C299.678 401.961 300.622 401.459 301.319 400.575C302.017 399.691 302.413 398.496 302.421 397.245C302.4 396 302 394.814 301.305 393.933C300.611 393.053 299.674 392.546 298.692 392.519Z" fill="#E8AC18"/>
<path d="M356.376 266.32C354.516 264.418 352.427 262.908 350.188 261.848C349.232 261.516 348.211 261.678 347.349 262.297C346.487 262.917 345.854 263.944 345.589 265.155C345.349 266.365 345.486 267.646 345.972 268.731C346.458 269.817 347.255 270.623 348.198 270.983L348.482 271.11L348.817 271.301L349.686 271.874L350.523 272.509C350.64 272.509 351.727 273.633 351.091 272.997C351.803 273.857 352.75 274.337 353.734 274.337C354.718 274.337 355.664 273.857 356.376 272.997C357.062 272.103 357.445 270.905 357.445 269.659C357.445 268.412 357.062 267.214 356.376 266.32Z" fill="#E8AC18"/>
<path d="M269.189 262.039C268.675 260.978 267.857 260.209 266.907 259.893C265.957 259.577 264.947 259.739 264.088 260.343C261.21 262.059 258.499 264.192 256.01 266.702C255.311 267.592 254.919 268.796 254.919 270.051C254.919 271.306 255.311 272.51 256.01 273.4C256.722 274.26 257.668 274.74 258.652 274.74C259.636 274.74 260.582 274.26 261.295 273.4C263.325 271.448 265.524 269.798 267.851 268.482C268.693 267.842 269.305 266.81 269.555 265.606C269.805 264.402 269.674 263.122 269.189 262.039Z" fill="#E8AC18"/>
<path d="M434.131 203.751L343.398 286.308L508.473 313.862C508.473 313.862 508.44 251.568 434.131 203.751Z" fill="#68E1FD"/>
<path d="M434.131 203.751L343.398 286.308L508.473 313.862C508.473 313.862 508.44 251.568 434.131 203.751Z" fill="#146666"/>
<path d="M366.579 291.31L451.675 228.571L415.081 213.289L343.398 286.308L366.579 291.31Z" fill="#DDAF73"/>
<path d="M379.223 188.872V208.774C379.223 212.886 380.279 216.886 382.231 220.17C384.183 223.455 386.926 225.845 390.044 226.981L495.93 265.451C498.932 266.546 502.144 266.233 504.979 264.571C507.814 262.909 510.082 260.009 511.367 256.401L521.101 229.122" fill="#DDAF73"/>
<path d="M379.223 188.872L380.694 269.584C380.694 269.584 380.962 273.824 383.454 274.332C385.946 274.841 386.331 268.991 386.331 268.991C386.331 268.991 385.377 238.427 388.438 239.487C391.499 240.546 385.628 287.961 390.763 288.237C395.898 288.512 389.391 235.248 397.068 235.968C404.745 236.689 403.206 255.659 408.575 248.686C413.944 241.712 404.16 206.951 411.067 207.163C417.974 207.375 413.158 219.139 421.42 218.355C429.682 217.57 428.862 210.979 433.579 214.412C438.295 217.846 431.405 228.804 439.265 233.043C447.126 237.282 448.715 216.511 454.468 216.977L379.223 188.872Z" fill="#FDB86A"/>
<path d="M515.682 239.487C519.495 230.245 524.044 220.05 524.044 209.813C524.044 176.154 506.767 149.681 472.732 132.301C441.59 151.377 410.348 170.008 379.072 188.808C427.324 206.464 467.547 222 515.682 239.487Z" fill="#F6D6A7"/>
<path d="M511.45 195.188C511.45 208.732 506.433 221.619 497.769 232.916L515.682 239.487C523.676 226.926 528.106 211.324 528.259 195.188C528.259 167.337 514.612 141.563 489.792 122.614L489.273 122.233L470.29 133.848C495.227 148.494 511.45 170.749 511.45 195.188Z" fill="#FDB86A"/>
<path d="M458.8 172.827C465.312 172.827 470.591 169.031 470.591 164.348C470.591 159.666 465.312 155.87 458.8 155.87C452.288 155.87 447.009 159.666 447.009 164.348C447.009 169.031 452.288 172.827 458.8 172.827Z" fill="#C35959"/>
<path d="M473.368 207.057C479.88 207.057 485.159 203.262 485.159 198.579C485.159 193.897 479.88 190.101 473.368 190.101C466.856 190.101 461.577 193.897 461.577 198.579C461.577 203.262 466.856 207.057 473.368 207.057Z" fill="#C35959"/>
<path d="M409.545 200.042C412.439 198.494 414.328 196.036 414.328 193.238C414.328 188.554 409.043 184.76 402.621 184.76C396.199 184.76 390.913 188.469 390.913 193.09L409.545 200.042Z" fill="#C35959"/>
<path d="M418.008 172.827L424.163 167.74C424.163 167.74 446.708 170.919 442.911 195.188L434.549 198.579C434.549 198.579 442.61 179.27 418.008 172.827Z" fill="#C35959"/>
<path d="M480.76 226.621C481.41 223.443 481.747 220.175 481.764 216.892L476.964 209.855C476.793 214.806 475.968 219.685 474.522 224.289L480.76 226.621Z" fill="#C35959"/>
<path d="M433.579 156.124L435.736 161.847C447.795 162.801 452.177 152.161 453.783 143.916L433.579 156.124Z" fill="#C35959"/>
<path d="M463.282 220.071L471.193 223.018C474.383 223.2 477.552 222.3 480.375 220.411C484.256 217.846 488.387 214.37 489.825 208.859C491.364 202.945 490.126 196.269 488.454 190.525C490.866 187.848 492.396 184.119 492.74 180.079C493.084 176.039 492.216 171.982 490.31 168.715C484.256 158.117 472.983 159.028 465.022 165.302C460.857 168.587 464.687 176.981 468.885 173.674C473.083 170.368 478.251 168.333 482.483 172.318C485.51 175.158 486.731 182.216 482.316 184.293C481.661 184.623 481.083 185.16 480.638 185.852C480.194 186.545 479.896 187.37 479.773 188.249C479.651 189.129 479.708 190.033 479.939 190.877C480.171 191.72 480.568 192.475 481.095 193.068C482.03 195.967 482.594 199.037 482.767 202.161C482.918 206.93 480.76 208.838 477.75 211.085C472.732 214.921 466.678 213.946 463.366 207.354C460.724 202.119 454.117 206.973 456.76 212.25C458.399 215.491 460.638 218.176 463.282 220.071Z" fill="#F88F58"/>
<path d="M422.055 204.705C425.15 202.734 424.598 195.506 420.383 195.506C419.7 195.507 419.031 195.74 418.443 196.18C417.855 196.619 417.371 197.25 417.04 198.007C416.709 198.763 416.544 199.618 416.561 200.482C416.578 201.347 416.778 202.19 417.138 202.924L422.055 204.705Z" fill="#4D2122"/>
<path d="M455.472 203.624C450.555 203.624 450.538 213.31 455.472 213.31C460.406 213.31 460.406 203.624 455.472 203.624Z" fill="#4D2122"/>
<path d="M474.505 145.696C473.861 143.427 472.654 141.484 471.065 140.158C469.476 138.832 467.59 138.194 465.691 138.341C465.166 138.393 464.66 138.612 464.219 138.977C463.62 138.809 462.995 138.889 462.434 139.206C461.874 139.523 461.409 140.059 461.108 140.736C459.943 142.847 459.326 145.366 459.344 147.942C459.362 150.518 460.014 153.023 461.209 155.107C462.349 156.935 463.984 158.163 465.796 158.554C467.609 158.946 469.472 158.473 471.026 157.227C472.549 156.086 473.722 154.325 474.353 152.231C474.985 150.137 475.038 147.834 474.505 145.696ZM467.949 150.55C467.787 150.726 467.596 150.853 467.389 150.92C467.183 150.988 466.967 150.994 466.759 150.939C466.55 150.884 466.354 150.768 466.186 150.601C466.019 150.435 465.883 150.221 465.791 149.978C465.534 149.38 465.399 148.709 465.399 148.028C465.399 147.346 465.534 146.676 465.791 146.078C467.631 146.078 470.207 148.685 467.949 150.614V150.55Z" fill="#4DAA3D"/>
<path d="M474.856 203.857C474.752 201.278 474.066 198.791 472.88 196.691C471.695 194.591 470.059 192.966 468.166 192.009C465.591 190.779 464.052 194.128 464.587 196.735C457.897 201.78 461.459 219.923 470.257 216.405C474.421 214.751 475.308 208.626 474.856 203.857ZM468.835 207.481C468.216 212.102 465.992 203.984 467.848 203.242C468.112 203.141 468.365 202.998 468.601 202.818C468.937 204.334 469.017 205.923 468.835 207.481Z" fill="#4DAA3D"/>
<path d="M425.902 184.781L421.253 179.079C420.968 178.719 420.631 178.433 420.259 178.238C419.887 178.043 419.489 177.942 419.087 177.942C418.684 177.942 418.286 178.043 417.915 178.238C417.543 178.433 417.205 178.719 416.921 179.079C416.636 179.44 416.411 179.868 416.257 180.339C416.103 180.81 416.024 181.314 416.024 181.824C416.024 182.334 416.103 182.839 416.257 183.31C416.411 183.781 416.636 184.208 416.921 184.569L421.57 190.207C422.145 190.935 422.924 191.344 423.736 191.344C424.138 191.344 424.537 191.243 424.908 191.048C425.28 190.853 425.618 190.567 425.902 190.207C426.187 189.846 426.412 189.419 426.566 188.948C426.72 188.477 426.799 187.972 426.799 187.462C426.799 186.952 426.72 186.448 426.566 185.977C426.412 185.506 426.187 185.078 425.902 184.717V184.781Z" fill="#E8AC18"/>
<path d="M438.596 210.873L447.712 214.285C447.655 213.297 447.357 212.357 446.859 211.593L442.46 204.641C441.884 203.918 441.105 203.512 440.294 203.512C439.483 203.512 438.704 203.918 438.128 204.641C437.569 205.379 437.257 206.363 437.257 207.386C437.257 208.409 437.569 209.393 438.128 210.131L438.596 210.873Z" fill="#E8AC18"/>
<path d="M501.75 185.438C501.098 180.542 495.211 182.619 495.846 187.557C496.319 191.174 495.868 194.887 494.558 198.155C492.886 202.606 498.07 206.633 499.843 202.076C501.906 196.947 502.577 191.099 501.75 185.438Z" fill="#E8AC18"/>
<path d="M470.357 133.848C470.357 133.848 467.664 125.56 476.579 121.003C485.493 116.446 489.842 122.614 489.842 122.614" fill="#FDB86A"/>
<path d="M497.769 232.916C497.948 235.04 498.607 237.053 499.666 238.715C500.725 240.376 502.14 241.616 503.74 242.284C509.293 244.404 515.699 239.487 515.699 239.487" fill="#FDB86A"/>
<path d="M379.223 228.041L360.089 226.621L373.821 201.229L378.838 201.737L379.223 228.041Z" fill="#E5994C"/>
<defs>
<linearGradient id="paint0_linear_2_3" x1="408.441" y1="270.411" x2="164.484" y2="453.443" gradientUnits="userSpaceOnUse">
<stop stop-color="#7F4E00"/>
<stop offset="1" stop-color="white"/>
</linearGradient>
</defs>
</svg>
